<mxfile host="65bd71144e">
    <diagram id="BZZcQW6atTqjhy44g_oU" name="第 1 页">
        <mxGraphModel dx="1132" dy="723" grid="0" gridSize="10" guides="1" tooltips="1" connect="1" arrows="1" fold="1" page="1" pageScale="1" pageWidth="1200" pageHeight="1600" background="none" math="0" shadow="0">
            <root>
                <mxCell id="0"/>
                <mxCell id="1" parent="0"/>
                <mxCell id="147" value="" style="group" vertex="1" connectable="0" parent="1">
                    <mxGeometry x="150" y="390" width="320" height="60" as="geometry"/>
                </mxCell>
                <mxCell id="134" value="比它小的" style="rounded=1;whiteSpace=wrap;html=1;hachureGap=4;fontFamily=Architects Daughter;fontSource=https%3A%2F%2Ffonts.googleapis.com%2Fcss%3Ffamily%3DArchitects%2BDaughter;fontSize=20;fillColor=#dae8fc;strokeColor=#6c8ebf;shadow=0;glass=0;sketch=1;curveFitting=1;jiggle=2;" vertex="1" parent="147">
                    <mxGeometry width="90.74626865671642" height="60" as="geometry"/>
                </mxCell>
                <mxCell id="136" value="比它大的" style="rounded=1;whiteSpace=wrap;html=1;sketch=1;hachureGap=4;jiggle=2;curveFitting=1;fontFamily=Architects Daughter;fontSource=https%3A%2F%2Ffonts.googleapis.com%2Fcss%3Ffamily%3DArchitects%2BDaughter;fontSize=20;fillColor=#f8cecc;strokeColor=#b85450;" vertex="1" parent="147">
                    <mxGeometry x="133.7313432835821" width="186.26865671641795" height="60" as="geometry"/>
                </mxCell>
                <mxCell id="135" value="和它相等" style="rounded=1;whiteSpace=wrap;html=1;hachureGap=4;fontFamily=Architects Daughter;fontSource=https%3A%2F%2Ffonts.googleapis.com%2Fcss%3Ffamily%3DArchitects%2BDaughter;fontSize=20;fillStyle=auto;fillColor=#d5e8d4;strokeColor=#82b366;shadow=0;sketch=1;curveFitting=1;jiggle=2;imageWidth=24;imageAspect=1;overflow=visible;recursiveResize=1;" vertex="1" parent="147">
                    <mxGeometry x="90.74626865671642" width="42.98507462686568" height="60" as="geometry"/>
                </mxCell>
                <mxCell id="148" value="" style="group" vertex="1" connectable="0" parent="1">
                    <mxGeometry x="150" y="290" width="1130" height="70" as="geometry"/>
                </mxCell>
                <mxCell id="149" value="比它小的" style="rounded=1;whiteSpace=wrap;html=1;hachureGap=4;fontFamily=Architects Daughter;fontSource=https%3A%2F%2Ffonts.googleapis.com%2Fcss%3Ffamily%3DArchitects%2BDaughter;fontSize=20;fillColor=#dae8fc;strokeColor=#6c8ebf;shadow=0;glass=0;sketch=1;curveFitting=1;jiggle=2;" vertex="1" parent="148">
                    <mxGeometry width="320.4477611940299" height="70" as="geometry"/>
                </mxCell>
                <mxCell id="150" value="比它大的" style="rounded=1;whiteSpace=wrap;html=1;sketch=1;hachureGap=4;jiggle=2;curveFitting=1;fontFamily=Architects Daughter;fontSource=https%3A%2F%2Ffonts.googleapis.com%2Fcss%3Ffamily%3DArchitects%2BDaughter;fontSize=20;fillColor=#f8cecc;strokeColor=#b85450;" vertex="1" parent="148">
                    <mxGeometry x="472.2388059701494" width="657.7611940298508" height="70" as="geometry"/>
                </mxCell>
                <mxCell id="151" value="和它相等" style="rounded=1;whiteSpace=wrap;html=1;hachureGap=4;fontFamily=Architects Daughter;fontSource=https%3A%2F%2Ffonts.googleapis.com%2Fcss%3Ffamily%3DArchitects%2BDaughter;fontSize=20;fillStyle=auto;fillColor=#d5e8d4;strokeColor=#82b366;shadow=0;sketch=1;curveFitting=1;jiggle=2;imageWidth=24;imageAspect=1;overflow=visible;recursiveResize=1;" vertex="1" parent="148">
                    <mxGeometry x="320.4477611940299" width="151.7910447761194" height="70" as="geometry"/>
                </mxCell>
                <mxCell id="153" value="" style="group" vertex="1" connectable="0" parent="1">
                    <mxGeometry x="620" y="400" width="660" height="60" as="geometry"/>
                </mxCell>
                <mxCell id="154" value="比它小的" style="rounded=1;whiteSpace=wrap;html=1;hachureGap=4;fontFamily=Architects Daughter;fontSource=https%3A%2F%2Ffonts.googleapis.com%2Fcss%3Ffamily%3DArchitects%2BDaughter;fontSize=20;fillColor=#dae8fc;strokeColor=#6c8ebf;shadow=0;glass=0;sketch=1;curveFitting=1;jiggle=2;" vertex="1" parent="153">
                    <mxGeometry width="187.16417910447763" height="60" as="geometry"/>
                </mxCell>
                <mxCell id="155" value="比它大的" style="rounded=1;whiteSpace=wrap;html=1;sketch=1;hachureGap=4;jiggle=2;curveFitting=1;fontFamily=Architects Daughter;fontSource=https%3A%2F%2Ffonts.googleapis.com%2Fcss%3Ffamily%3DArchitects%2BDaughter;fontSize=20;fillColor=#f8cecc;strokeColor=#b85450;" vertex="1" parent="153">
                    <mxGeometry x="275.82089552238807" width="384.17910447761204" height="60" as="geometry"/>
                </mxCell>
                <mxCell id="156" value="和它相等" style="rounded=1;whiteSpace=wrap;html=1;hachureGap=4;fontFamily=Architects Daughter;fontSource=https%3A%2F%2Ffonts.googleapis.com%2Fcss%3Ffamily%3DArchitects%2BDaughter;fontSize=20;fillStyle=auto;fillColor=#d5e8d4;strokeColor=#82b366;shadow=0;sketch=1;curveFitting=1;jiggle=2;imageWidth=24;imageAspect=1;overflow=visible;recursiveResize=1;" vertex="1" parent="153">
                    <mxGeometry x="187.16417910447763" width="88.65671641791047" height="60" as="geometry"/>
                </mxCell>
                <mxCell id="157" value="" style="group" vertex="1" connectable="0" parent="1">
                    <mxGeometry x="150" y="490" width="90" height="60" as="geometry"/>
                </mxCell>
                <mxCell id="158" value="" style="rounded=1;whiteSpace=wrap;html=1;hachureGap=4;fontFamily=Architects Daughter;fontSource=https%3A%2F%2Ffonts.googleapis.com%2Fcss%3Ffamily%3DArchitects%2BDaughter;fontSize=20;fillColor=#dae8fc;strokeColor=#6c8ebf;shadow=0;glass=0;sketch=1;curveFitting=1;jiggle=2;" vertex="1" parent="157">
                    <mxGeometry width="25.522388059701495" height="60" as="geometry"/>
                </mxCell>
                <mxCell id="159" value="" style="rounded=1;whiteSpace=wrap;html=1;sketch=1;hachureGap=4;jiggle=2;curveFitting=1;fontFamily=Architects Daughter;fontSource=https%3A%2F%2Ffonts.googleapis.com%2Fcss%3Ffamily%3DArchitects%2BDaughter;fontSize=20;fillColor=#f8cecc;strokeColor=#b85450;" vertex="1" parent="157">
                    <mxGeometry x="37.61194029850747" width="52.38805970149255" height="60" as="geometry"/>
                </mxCell>
                <mxCell id="161" style="edgeStyle=none;sketch=1;hachureGap=4;jiggle=2;curveFitting=1;html=1;exitX=1;exitY=0.5;exitDx=0;exitDy=0;fontFamily=Architects Daughter;fontSource=https%3A%2F%2Ffonts.googleapis.com%2Fcss%3Ffamily%3DArchitects%2BDaughter;fontSize=16;" edge="1" parent="157" source="160" target="159">
                    <mxGeometry relative="1" as="geometry"/>
                </mxCell>
                <mxCell id="160" value="" style="rounded=1;whiteSpace=wrap;html=1;hachureGap=4;fontFamily=Architects Daughter;fontSource=https%3A%2F%2Ffonts.googleapis.com%2Fcss%3Ffamily%3DArchitects%2BDaughter;fontSize=20;fillStyle=auto;fillColor=#d5e8d4;strokeColor=#82b366;shadow=0;sketch=1;curveFitting=1;jiggle=2;imageWidth=24;imageAspect=1;overflow=visible;recursiveResize=1;" vertex="1" parent="157">
                    <mxGeometry x="25.522388059701495" width="12.089552238805974" height="60" as="geometry"/>
                </mxCell>
                <mxCell id="162" value="" style="group" vertex="1" connectable="0" parent="1">
                    <mxGeometry x="620" y="500" width="190" height="60" as="geometry"/>
                </mxCell>
                <mxCell id="163" value="" style="rounded=1;whiteSpace=wrap;html=1;hachureGap=4;fontFamily=Architects Daughter;fontSource=https%3A%2F%2Ffonts.googleapis.com%2Fcss%3Ffamily%3DArchitects%2BDaughter;fontSize=20;fillColor=#dae8fc;strokeColor=#6c8ebf;shadow=0;glass=0;sketch=1;curveFitting=1;jiggle=2;" vertex="1" parent="162">
                    <mxGeometry width="53.88059701492538" height="60" as="geometry"/>
                </mxCell>
                <mxCell id="164" value="" style="rounded=1;whiteSpace=wrap;html=1;sketch=1;hachureGap=4;jiggle=2;curveFitting=1;fontFamily=Architects Daughter;fontSource=https%3A%2F%2Ffonts.googleapis.com%2Fcss%3Ffamily%3DArchitects%2BDaughter;fontSize=20;fillColor=#f8cecc;strokeColor=#b85450;" vertex="1" parent="162">
                    <mxGeometry x="79.40298507462688" width="110.59701492537317" height="60" as="geometry"/>
                </mxCell>
                <mxCell id="165" style="edgeStyle=none;sketch=1;hachureGap=4;jiggle=2;curveFitting=1;html=1;exitX=1;exitY=0.5;exitDx=0;exitDy=0;fontFamily=Architects Daughter;fontSource=https%3A%2F%2Ffonts.googleapis.com%2Fcss%3Ffamily%3DArchitects%2BDaughter;fontSize=16;" edge="1" parent="162" source="166" target="164">
                    <mxGeometry relative="1" as="geometry"/>
                </mxCell>
                <mxCell id="166" value="" style="rounded=1;whiteSpace=wrap;html=1;hachureGap=4;fontFamily=Architects Daughter;fontSource=https%3A%2F%2Ffonts.googleapis.com%2Fcss%3Ffamily%3DArchitects%2BDaughter;fontSize=20;fillStyle=auto;fillColor=#d5e8d4;strokeColor=#82b366;shadow=0;sketch=1;curveFitting=1;jiggle=2;imageWidth=24;imageAspect=1;overflow=visible;recursiveResize=1;" vertex="1" parent="162">
                    <mxGeometry x="53.88059701492538" width="25.522388059701502" height="60" as="geometry"/>
                </mxCell>
                <mxCell id="167" value="" style="group" vertex="1" connectable="0" parent="1">
                    <mxGeometry x="280" y="490" width="190" height="60" as="geometry"/>
                </mxCell>
                <mxCell id="168" value="" style="rounded=1;whiteSpace=wrap;html=1;hachureGap=4;fontFamily=Architects Daughter;fontSource=https%3A%2F%2Ffonts.googleapis.com%2Fcss%3Ffamily%3DArchitects%2BDaughter;fontSize=20;fillColor=#dae8fc;strokeColor=#6c8ebf;shadow=0;glass=0;sketch=1;curveFitting=1;jiggle=2;" vertex="1" parent="167">
                    <mxGeometry width="53.88059701492538" height="60" as="geometry"/>
                </mxCell>
                <mxCell id="169" value="" style="rounded=1;whiteSpace=wrap;html=1;sketch=1;hachureGap=4;jiggle=2;curveFitting=1;fontFamily=Architects Daughter;fontSource=https%3A%2F%2Ffonts.googleapis.com%2Fcss%3Ffamily%3DArchitects%2BDaughter;fontSize=20;fillColor=#f8cecc;strokeColor=#b85450;" vertex="1" parent="167">
                    <mxGeometry x="79.40298507462688" width="110.59701492537317" height="60" as="geometry"/>
                </mxCell>
                <mxCell id="170" style="edgeStyle=none;sketch=1;hachureGap=4;jiggle=2;curveFitting=1;html=1;exitX=1;exitY=0.5;exitDx=0;exitDy=0;fontFamily=Architects Daughter;fontSource=https%3A%2F%2Ffonts.googleapis.com%2Fcss%3Ffamily%3DArchitects%2BDaughter;fontSize=16;" edge="1" parent="167" source="171" target="169">
                    <mxGeometry relative="1" as="geometry"/>
                </mxCell>
                <mxCell id="171" value="" style="rounded=1;whiteSpace=wrap;html=1;hachureGap=4;fontFamily=Architects Daughter;fontSource=https%3A%2F%2Ffonts.googleapis.com%2Fcss%3Ffamily%3DArchitects%2BDaughter;fontSize=20;fillStyle=auto;fillColor=#d5e8d4;strokeColor=#82b366;shadow=0;sketch=1;curveFitting=1;jiggle=2;imageWidth=24;imageAspect=1;overflow=visible;recursiveResize=1;" vertex="1" parent="167">
                    <mxGeometry x="53.88059701492538" width="25.522388059701502" height="60" as="geometry"/>
                </mxCell>
                <mxCell id="172" value="" style="group" vertex="1" connectable="0" parent="1">
                    <mxGeometry x="890" y="500" width="390" height="60" as="geometry"/>
                </mxCell>
                <mxCell id="173" value="" style="rounded=1;whiteSpace=wrap;html=1;hachureGap=4;fontFamily=Architects Daughter;fontSource=https%3A%2F%2Ffonts.googleapis.com%2Fcss%3Ffamily%3DArchitects%2BDaughter;fontSize=20;fillColor=#dae8fc;strokeColor=#6c8ebf;shadow=0;glass=0;sketch=1;curveFitting=1;jiggle=2;" vertex="1" parent="172">
                    <mxGeometry width="110.59701492537316" height="60" as="geometry"/>
                </mxCell>
                <mxCell id="174" value="" style="rounded=1;whiteSpace=wrap;html=1;sketch=1;hachureGap=4;jiggle=2;curveFitting=1;fontFamily=Architects Daughter;fontSource=https%3A%2F%2Ffonts.googleapis.com%2Fcss%3Ffamily%3DArchitects%2BDaughter;fontSize=20;fillColor=#f8cecc;strokeColor=#b85450;" vertex="1" parent="172">
                    <mxGeometry x="162.98507462686572" width="227.01492537313442" height="60" as="geometry"/>
                </mxCell>
                <mxCell id="175" style="edgeStyle=none;sketch=1;hachureGap=4;jiggle=2;curveFitting=1;html=1;exitX=1;exitY=0.5;exitDx=0;exitDy=0;fontFamily=Architects Daughter;fontSource=https%3A%2F%2Ffonts.googleapis.com%2Fcss%3Ffamily%3DArchitects%2BDaughter;fontSize=16;" edge="1" parent="172" source="176" target="174">
                    <mxGeometry relative="1" as="geometry"/>
                </mxCell>
                <mxCell id="176" value="" style="rounded=1;whiteSpace=wrap;html=1;hachureGap=4;fontFamily=Architects Daughter;fontSource=https%3A%2F%2Ffonts.googleapis.com%2Fcss%3Ffamily%3DArchitects%2BDaughter;fontSize=20;fillStyle=auto;fillColor=#d5e8d4;strokeColor=#82b366;shadow=0;sketch=1;curveFitting=1;jiggle=2;imageWidth=24;imageAspect=1;overflow=visible;recursiveResize=1;" vertex="1" parent="172">
                    <mxGeometry x="110.59701492537316" width="52.38805970149256" height="60" as="geometry"/>
                </mxCell>
                <mxCell id="177" value="快速排序内部逻辑" style="text;html=1;strokeColor=none;fillColor=none;align=center;verticalAlign=middle;whiteSpace=wrap;rounded=0;shadow=0;glass=0;sketch=1;hachureGap=4;jiggle=2;fillStyle=auto;curveFitting=1;fontFamily=Architects Daughter;fontSource=https%3A%2F%2Ffonts.googleapis.com%2Fcss%3Ffamily%3DArchitects%2BDaughter;fontSize=20;" vertex="1" parent="1">
                    <mxGeometry x="150" y="210" width="185" height="50" as="geometry"/>
                </mxCell>
            </root>
        </mxGraphModel>
    </diagram>
</mxfile>